<?xml version="1.0" encoding="UTF-8" standalone="no"?>
<!DOCTYPE svg PUBLIC "-//W3C//DTD SVG 1.1//EN" "http://www.w3.org/Graphics/SVG/1.1/DTD/svg11.dtd">
<svg width="100%" height="100%" viewBox="0 0 170 133" version="1.1" xmlns="http://www.w3.org/2000/svg" xmlns:xlink="http://www.w3.org/1999/xlink" xml:space="preserve" xmlns:serif="http://www.serif.com/" style="fill-rule:evenodd;clip-rule:evenodd;stroke-linejoin:round;stroke-miterlimit:2;">
    <g transform="matrix(1,0,0,1,-1129.84,-1975.21)">
        <path d="M1267.23,2032.57C1264.32,2032.23 1261.39,2032.23 1258.48,2032.57L1257.21,2039.37C1254.51,2039.86 1251.88,2040.72 1249.4,2041.9L1244.38,2037.15C1241.83,2038.59 1239.45,2040.31 1237.3,2042.29L1240.26,2048.54C1238.37,2050.53 1236.75,2052.76 1235.44,2055.18L1228.58,2054.29C1227.36,2056.95 1226.45,2059.74 1225.88,2062.61L1231.95,2065.93C1231.59,2068.65 1231.59,2071.41 1231.95,2074.13L1225.88,2077.44C1226.45,2080.31 1227.36,2083.11 1228.58,2085.76L1235.44,2084.88C1236.75,2087.29 1238.37,2089.52 1240.26,2091.51L1237.3,2097.76C1239.45,2099.75 1241.83,2101.47 1244.38,2102.91L1249.4,2098.16C1251.88,2099.34 1254.51,2100.19 1257.21,2100.69L1258.48,2107.49C1261.39,2107.83 1264.32,2107.83 1267.23,2107.49L1268.51,2100.69C1271.21,2100.19 1273.83,2099.34 1276.31,2098.16L1281.34,2102.91C1283.89,2101.47 1286.26,2099.75 1288.41,2097.76L1285.45,2091.51C1287.34,2089.52 1288.96,2087.29 1290.27,2084.88L1297.13,2085.76C1298.35,2083.11 1299.26,2080.31 1299.83,2077.44L1293.76,2074.13C1294.13,2071.41 1294.13,2068.65 1293.76,2065.93L1299.83,2062.61C1299.26,2059.74 1298.35,2056.95 1297.13,2054.29L1290.27,2055.18C1288.96,2052.76 1287.34,2050.53 1285.45,2048.54L1288.41,2042.29C1286.26,2040.31 1283.89,2038.59 1281.34,2037.15L1276.31,2041.9C1273.83,2040.72 1271.21,2039.86 1268.51,2039.37L1267.23,2032.57ZM1262.86,2050.08C1273.86,2050.08 1282.8,2059.02 1282.8,2070.03C1282.8,2081.04 1273.86,2089.97 1262.86,2089.97C1251.85,2089.97 1242.91,2081.04 1242.91,2070.03C1242.91,2059.02 1251.85,2050.08 1262.86,2050.08ZM1187.56,1975.57C1183.5,1975.1 1179.41,1975.1 1175.35,1975.57L1173.57,1985.06C1169.8,1985.75 1166.14,1986.94 1162.68,1988.59L1155.66,1981.97C1152.1,1983.97 1148.79,1986.38 1145.78,1989.14L1149.92,1997.87C1147.28,2000.64 1145.01,2003.76 1143.19,2007.13L1133.61,2005.89C1131.91,2009.6 1130.64,2013.5 1129.84,2017.51L1138.31,2022.13C1137.81,2025.93 1137.81,2029.78 1138.31,2033.58L1129.84,2038.21C1130.64,2042.21 1131.91,2046.11 1133.61,2049.82L1143.19,2048.58C1145.01,2051.95 1147.28,2055.07 1149.92,2057.85L1145.78,2066.57C1148.79,2069.34 1152.1,2071.75 1155.66,2073.75L1162.68,2067.12C1166.14,2068.77 1169.8,2069.96 1173.57,2070.66L1175.35,2080.14C1179.41,2080.62 1183.5,2080.62 1187.56,2080.14L1189.34,2070.66C1193.11,2069.96 1196.77,2068.77 1200.23,2067.12L1207.25,2073.75C1210.81,2071.75 1214.12,2069.34 1217.13,2066.57L1212.99,2057.85C1215.63,2055.07 1217.9,2051.95 1219.72,2048.58L1229.3,2049.82C1231,2046.11 1232.27,2042.21 1233.07,2038.21L1224.6,2033.58C1225.1,2029.78 1225.1,2025.93 1224.6,2022.13L1233.07,2017.51C1232.27,2013.5 1231,2009.6 1229.3,2005.89L1219.72,2007.13C1217.9,2003.76 1215.63,2000.64 1212.99,1997.87L1217.13,1989.14C1214.12,1986.38 1210.81,1983.97 1207.25,1981.97L1200.23,1988.59C1196.77,1986.94 1193.11,1985.75 1189.34,1985.06L1187.56,1975.57ZM1181.45,2000.02C1196.82,2000.02 1209.3,2012.49 1209.3,2027.86C1209.3,2043.22 1196.82,2055.7 1181.45,2055.7C1166.09,2055.7 1153.62,2043.22 1153.62,2027.86C1153.62,2012.49 1166.09,2000.02 1181.45,2000.02Z" style="fill:rgb(198,198,198);"/>
    </g>
</svg>
