<?xml version="1.0" encoding="UTF-8" standalone="no"?>
<!DOCTYPE svg PUBLIC "-//W3C//DTD SVG 1.1//EN" "http://www.w3.org/Graphics/SVG/1.1/DTD/svg11.dtd">
<svg width="100%" height="100%" viewBox="0 0 166 135" version="1.1" xmlns="http://www.w3.org/2000/svg" xmlns:xlink="http://www.w3.org/1999/xlink" xml:space="preserve" xmlns:serif="http://www.serif.com/" style="fill-rule:evenodd;clip-rule:evenodd;stroke-linejoin:round;stroke-miterlimit:2;">
    <g transform="matrix(1,0,0,1,-288.27,-2247.6)">
        <path d="M415.787,2289.47L453.384,2289.47L453.384,2381.75L393.262,2381.75L393.262,2335.05L288.27,2335.05L288.27,2247.6L415.787,2247.6L415.787,2289.47ZM401.432,2373.58L401.432,2297.64L445.214,2297.64L445.214,2373.58L401.432,2373.58ZM427.49,2356.32L419.156,2356.32L419.156,2364.66L427.49,2364.66L427.49,2356.32ZM375.393,2345.49L328.664,2345.49L328.664,2353.83L375.393,2353.83L375.393,2345.49ZM407.617,2289.47L393.262,2289.47L393.262,2326.88L296.441,2326.88C296.441,2326.88 296.441,2255.77 296.441,2255.77L407.617,2255.77L407.617,2289.47Z" style="fill:rgb(198,198,198);"/>
    </g>
</svg>
