<?xml version="1.0" encoding="UTF-8" standalone="no"?>
<!DOCTYPE svg PUBLIC "-//W3C//DTD SVG 1.1//EN" "http://www.w3.org/Graphics/SVG/1.1/DTD/svg11.dtd">
<svg width="100%" height="100%" viewBox="0 0 91 90" version="1.1" xmlns="http://www.w3.org/2000/svg" xmlns:xlink="http://www.w3.org/1999/xlink" xml:space="preserve" xmlns:serif="http://www.serif.com/" style="fill-rule:evenodd;clip-rule:evenodd;stroke-linejoin:round;stroke-miterlimit:2;">
    <g transform="matrix(0.842131,0,0,0.842131,-1201.65,-2148.36)">
        <g transform="matrix(0.114384,0,0,0.114384,1475.27,2565.26)">
            <path d="M512,50C512,22.404 489.596,0 462,0L50,0C22.404,0 0,22.404 0,50L0,462C0,489.596 22.404,512 50,512L462,512C489.596,512 512,489.596 512,462L512,50Z" style="fill:rgb(49,120,198);"/>
            <path d="M316.939,407.424L316.939,457.485C325.077,461.657 334.702,464.785 345.814,466.871C356.926,468.957 368.637,470 380.949,470C392.948,470 404.346,468.853 415.145,466.558C425.944,464.264 435.413,460.483 443.551,455.216C451.689,449.95 458.132,443.066 462.879,434.566C467.626,426.066 470,415.559 470,403.044C470,393.97 468.644,386.018 465.931,379.187C463.218,372.356 459.306,366.281 454.193,360.962C449.081,355.643 442.951,350.871 435.804,346.647C428.657,342.423 420.597,338.434 411.624,334.68C405.051,331.968 399.156,329.335 393.939,326.78C388.722,324.224 384.288,321.617 380.636,318.958C376.984,316.298 374.167,313.482 372.185,310.51C370.203,307.537 369.211,304.174 369.211,300.419C369.211,296.978 370.098,293.875 371.872,291.111C373.646,288.347 376.15,285.975 379.384,283.993C382.619,282.012 386.583,280.473 391.278,279.378C395.974,278.283 401.19,277.736 406.929,277.736C411.102,277.736 415.51,278.049 420.153,278.674C424.796,279.3 429.465,280.265 434.161,281.568C438.856,282.872 443.42,284.515 447.855,286.496C452.289,288.478 456.384,290.772 460.14,293.38L460.14,246.604C452.524,243.684 444.203,241.52 435.178,240.112C426.153,238.704 415.797,238 404.112,238C392.217,238 380.949,239.278 370.307,241.833C359.665,244.388 350.301,248.377 342.214,253.8C334.128,259.224 327.738,266.133 323.043,274.529C318.348,282.924 316,292.962 316,304.643C316,319.557 320.304,332.281 328.912,342.815C337.519,353.348 350.587,362.265 368.116,369.566C375.002,372.382 381.419,375.145 387.366,377.857C393.313,380.569 398.452,383.385 402.781,386.305C407.111,389.225 410.528,392.406 413.033,395.848C415.537,399.289 416.789,403.2 416.789,407.581C416.789,410.814 416.006,413.812 414.441,416.576C412.876,419.34 410.502,421.738 407.32,423.772C404.138,425.806 400.173,427.396 395.426,428.543C390.678,429.691 385.123,430.264 378.758,430.264C367.907,430.264 357.161,428.361 346.518,424.554C335.876,420.748 326.016,415.038 316.939,407.424ZM232.78,284.082L297,284.082L297,243L118,243L118,284.082L181.906,284.082L181.906,467L232.78,467L232.78,284.082Z" style="fill:white;"/>
        </g>
        <g transform="matrix(0.0929597,0,0,0.0929597,1426.92,2585.25)">
            <rect x="0" y="0" width="630" height="630" style="fill:rgb(247,223,30);"/>
            <path d="M423.2,492.19C435.89,512.91 452.4,528.14 481.6,528.14C506.13,528.14 521.8,515.88 521.8,498.94C521.8,478.64 505.7,471.45 478.7,459.64L463.9,453.29C421.18,435.09 392.8,412.29 392.8,364.09C392.8,319.69 426.63,285.89 479.5,285.89C517.14,285.89 544.2,298.99 563.7,333.29L517.6,362.89C507.45,344.69 496.5,337.52 479.5,337.52C462.16,337.52 451.17,348.52 451.17,362.89C451.17,380.65 462.17,387.84 487.57,398.84L502.37,405.18C552.67,426.75 581.07,448.74 581.07,498.18C581.07,551.48 539.2,580.68 482.97,580.68C427.99,580.68 392.47,554.48 375.09,520.14L423.2,492.19ZM214.07,497.32C223.37,513.82 231.83,527.77 252.17,527.77C271.62,527.77 283.89,520.16 283.89,490.57L283.89,289.27L343.09,289.27L343.09,491.37C343.09,552.67 307.15,580.57 254.69,580.57C207.29,580.57 179.84,556.04 165.88,526.495L214.07,497.32Z" style="fill-rule:nonzero;"/>
        </g>
    </g>
</svg>
