<?xml version="1.0" encoding="UTF-8" standalone="no"?>
<!DOCTYPE svg PUBLIC "-//W3C//DTD SVG 1.1//EN" "http://www.w3.org/Graphics/SVG/1.1/DTD/svg11.dtd">
<svg width="100%" height="100%" viewBox="0 0 91 80" version="1.1" xmlns="http://www.w3.org/2000/svg" xmlns:xlink="http://www.w3.org/1999/xlink" xml:space="preserve" xmlns:serif="http://www.serif.com/" style="fill-rule:evenodd;clip-rule:evenodd;stroke-linejoin:round;stroke-miterlimit:2;">
    <g transform="matrix(0.230986,0,0,0.230986,-0.170533,9.64115)">
        <g transform="matrix(1,0,0,1,0.738281,121.593)">
            <path d="M0,62.235L12.842,62.235L12.842,11.524L32.723,55.732C35.068,61.083 38.279,62.976 44.576,62.976C50.874,62.976 53.961,61.083 56.308,55.732L76.188,11.524L76.188,62.235L89.03,62.235L89.03,11.607C89.03,6.668 87.054,4.28 82.98,3.046C73.225,0 66.68,2.634 63.716,9.22L44.206,52.85L25.314,9.22C22.474,2.634 15.806,0 6.051,3.046C1.976,4.28 0,6.668 0,11.607L0,62.235Z" style="fill:rgb(0,97,138);fill-rule:nonzero;"/>
        </g>
        <g transform="matrix(1,0,0,1,100.444,142.416)">
            <path d="M0.002,0.136L12.84,0.136L12.84,28.074C12.72,29.592 13.327,33.154 20.362,33.265C23.951,33.321 48.062,33.265 48.287,33.265L48.287,0L61.155,0C61.214,0 61.142,45.364 61.143,45.557C61.214,56.745 47.261,59.175 40.83,59.363L0.281,59.363L0.281,50.724C0.352,50.724 40.8,50.732 40.902,50.722C49.167,49.849 48.191,45.741 48.19,44.358L48.19,40.99L20.895,40.99C8.196,40.873 0.109,35.331 0.009,28.955C0,28.364 0.283,0.415 0.002,0.136Z" style="fill:rgb(0,97,138);fill-rule:nonzero;"/>
        </g>
        <g transform="matrix(1,0,0,1,171.496,124.557)">
            <path d="M0,59.271L36.92,59.271C41.242,59.271 45.441,58.366 48.775,56.801C54.331,54.25 57.048,50.793 57.048,46.264L57.048,36.88C57.048,33.175 53.961,29.717 47.91,27.413C44.699,26.177 40.748,25.519 36.92,25.519L21.361,25.519C16.176,25.519 13.706,23.955 13.089,20.498C12.965,20.086 12.965,19.756 12.965,19.345L12.965,13.501C12.965,13.171 12.965,12.841 13.089,12.43C13.706,9.796 15.065,9.054 19.633,8.643C20.004,8.643 20.497,8.56 20.868,8.56L57.542,8.56L57.542,0L21.485,0C16.299,0 13.582,0.329 11.113,1.069C3.457,3.457 0.123,7.244 0.123,13.83L0.123,21.321C0.123,27.084 6.668,32.023 17.657,33.175C18.893,33.257 20.127,33.339 21.361,33.339L34.697,33.339C35.192,33.339 35.686,33.339 36.056,33.422C40.131,33.752 41.859,34.492 43.095,35.974C43.835,36.714 44.082,37.456 44.082,38.279L44.082,45.77C44.082,46.676 43.465,47.829 42.231,48.816C41.119,49.804 39.267,50.463 36.797,50.628C36.303,50.628 35.933,50.71 35.439,50.71L0,50.71L0,59.271Z" style="fill:rgb(228,142,0);fill-rule:nonzero;"/>
        </g>
        <g transform="matrix(1,0,0,1,308.656,124.557)">
            <path d="M0,44.371C0,53.179 6.544,58.119 19.757,59.107C20.991,59.189 22.227,59.271 23.461,59.271L56.925,59.271L56.925,50.71L23.214,50.71C15.682,50.71 12.842,48.816 12.842,44.289L12.842,0L0,0L0,44.371Z" style="fill:rgb(228,142,0);fill-rule:nonzero;"/>
        </g>
        <g transform="matrix(1,0,0,1,236.74,124.666)">
            <path d="M0,44.711L0,14.189C0,6.435 5.445,1.732 16.209,0.247C17.323,0.083 18.561,0 19.674,0L44.05,0C45.287,0 46.402,0.083 47.639,0.247C58.404,1.732 63.848,6.435 63.848,14.189L63.848,44.711C63.848,51.002 61.536,54.369 56.207,56.563L68.857,67.981L53.946,67.981L43.712,58.743L33.409,59.396L19.674,59.396C17.323,59.396 14.849,59.065 12.126,58.323C3.96,56.096 0,51.806 0,44.711ZM13.861,43.969C13.861,44.382 13.984,44.794 14.108,45.289C14.85,48.836 18.191,50.816 23.264,50.816L34.931,50.816L24.214,41.141L39.125,41.141L48.472,49.579C50.194,48.661 51.328,47.257 51.724,45.454C51.847,45.042 51.847,44.629 51.847,44.217L51.847,14.932C51.847,14.602 51.847,14.189 51.724,13.776C50.981,10.477 47.64,8.58 42.691,8.58L23.264,8.58C17.573,8.58 13.861,11.055 13.861,14.932L13.861,43.969Z" style="fill:rgb(228,142,0);fill-rule:nonzero;"/>
        </g>
        <g transform="matrix(1,0,0,1,241.59,-4.64258)">
            <path d="M135.289,114.997C127.395,114.783 121.365,115.517 116.21,117.691C114.745,118.309 112.409,118.325 112.17,120.161C112.975,121.005 113.1,122.265 113.74,123.303C114.971,125.295 117.049,127.964 118.903,129.364C120.929,130.893 123.017,132.529 125.189,133.853C129.052,136.209 133.365,137.554 137.085,139.914C139.277,141.305 141.455,143.057 143.594,144.627C144.651,145.403 145.362,146.61 146.736,147.096L146.736,146.872C146.014,145.953 145.828,144.689 145.165,143.729C144.193,142.757 143.22,141.784 142.247,140.811C139.394,137.024 135.772,133.698 131.922,130.935C128.852,128.731 121.98,125.754 120.699,122.181C120.624,122.106 120.55,122.031 120.474,121.956C122.651,121.711 125.2,120.923 127.209,120.385C130.584,119.48 133.6,119.714 137.085,118.814C138.656,118.365 140.227,117.915 141.799,117.467L141.799,116.569C140.037,114.761 138.781,112.369 136.86,110.733C131.834,106.453 126.348,102.177 120.699,98.611C117.566,96.634 113.694,95.349 110.374,93.673C109.257,93.109 107.295,92.816 106.557,91.877C104.813,89.653 103.863,86.835 102.518,84.245C99.7,78.819 96.933,72.894 94.437,67.186C92.734,63.293 91.622,59.454 89.499,55.962C79.307,39.205 68.336,29.091 51.341,19.149C47.725,17.035 43.371,16.2 38.77,15.109C36.302,14.96 33.832,14.81 31.363,14.66C29.856,14.03 28.288,12.187 26.874,11.293C21.244,7.736 6.803,0 2.633,10.171C0,16.591 6.568,22.856 8.917,26.108C10.566,28.391 12.677,30.949 13.855,33.516C14.63,35.202 14.764,36.894 15.427,38.679C17.059,43.075 18.478,47.858 20.589,51.922C21.656,53.978 22.832,56.144 24.181,57.982C25.008,59.11 26.425,59.607 26.649,61.35C25.263,63.289 25.184,66.3 24.405,68.757C20.897,79.818 22.22,93.567 27.323,101.754C28.889,104.267 32.577,109.657 37.648,107.59C42.084,105.783 41.093,100.184 42.362,95.244C42.649,94.124 42.473,93.301 43.035,92.551L43.035,92.775C44.382,95.469 45.729,98.162 47.076,100.855C50.066,105.671 55.373,110.704 59.87,114.1C62.202,115.861 64.038,118.906 67.053,119.936L67.053,119.711L66.828,119.711C66.244,118.8 65.33,118.423 64.584,117.691C62.827,115.969 60.874,113.828 59.421,111.855C55.331,106.302 51.716,100.224 48.423,93.897C46.85,90.877 45.483,87.544 44.157,84.47C43.646,83.284 43.652,81.492 42.587,80.878C41.135,83.131 38.996,84.952 37.873,87.612C36.077,91.864 35.845,97.05 35.18,102.427C34.786,102.568 34.961,102.471 34.73,102.651C31.604,101.897 30.505,98.679 29.344,95.918C26.405,88.936 25.859,77.692 28.445,69.655C29.114,67.576 32.138,61.026 30.914,59.106C30.33,57.189 28.402,56.08 27.323,54.615C25.988,52.805 24.655,50.421 23.731,48.33C21.326,42.886 20.203,36.774 17.671,31.272C16.461,28.641 14.414,25.979 12.733,23.64C10.872,21.049 8.788,19.141 7.346,16.007C6.833,14.894 6.136,13.111 6.897,11.967C7.139,11.194 7.48,10.872 8.244,10.62C9.546,9.616 13.172,10.954 14.528,11.518C18.128,13.013 21.132,14.437 24.181,16.456C25.645,17.427 27.125,19.304 28.894,19.823L30.914,19.823C34.074,20.55 37.614,20.049 40.566,20.945C45.784,22.531 50.46,24.998 54.707,27.68C67.645,35.849 78.223,47.478 85.459,61.35C86.623,63.583 87.127,65.715 88.152,68.084C90.221,72.861 92.827,77.777 94.885,82.449C96.939,87.11 98.941,91.815 101.844,95.693C103.371,97.732 109.266,98.826 111.945,99.958C113.823,100.752 116.9,101.579 118.679,102.651C122.077,104.701 125.369,107.141 128.556,109.386C130.149,110.508 135.045,112.969 135.289,114.997Z" style="fill:rgb(0,97,138);fill-rule:nonzero;"/>
        </g>
        <g transform="matrix(1,0,0,1,272.504,24.8027)">
            <path d="M4.041,0.03C2.395,0 1.231,0.21 0,0.479L0,0.703L0.225,0.703C1.01,2.316 2.396,3.354 3.367,4.744C4.115,6.316 4.863,7.887 5.612,9.457C5.686,9.383 5.762,9.308 5.836,9.233C7.226,8.254 7.863,6.687 7.856,4.295C7.299,3.709 7.217,2.974 6.734,2.274C6.092,1.343 4.85,0.814 4.041,0.03Z" style="fill:rgb(0,97,138);"/>
        </g>
        <g transform="matrix(1,0,0,1,371.609,165.56)">
            <path d="M0,9.463C0,15.117 4.467,18.927 9.464,18.927C14.461,18.927 18.928,15.117 18.928,9.463C18.928,3.81 14.461,0 9.464,0C4.467,0 0,3.81 0,9.463ZM16.808,9.463C16.808,13.753 13.528,16.959 9.464,16.959C5.351,16.959 2.12,13.753 2.12,9.463C2.12,5.173 5.351,1.967 9.464,1.967C13.528,1.967 16.808,5.173 16.808,9.463ZM12.014,14.864L14.133,14.864L11.03,10.12C12.695,9.943 13.956,9.135 13.956,7.167C13.956,4.971 12.569,4.063 9.894,4.063L5.679,4.063L5.679,14.864L7.496,14.864L7.496,10.195L9.187,10.195L12.014,14.864ZM7.496,8.681L7.496,5.577L9.59,5.577C10.676,5.577 11.988,5.779 11.988,7.041C11.988,8.554 10.802,8.681 9.439,8.681L7.496,8.681Z" style="fill:rgb(228,142,0);"/>
        </g>
    </g>
</svg>
