<?xml version="1.0" encoding="UTF-8" standalone="no"?>
<!DOCTYPE svg PUBLIC "-//W3C//DTD SVG 1.1//EN" "http://www.w3.org/Graphics/SVG/1.1/DTD/svg11.dtd">
<svg width="100%" height="100%" viewBox="0 0 91 80" version="1.1" xmlns="http://www.w3.org/2000/svg" xmlns:xlink="http://www.w3.org/1999/xlink" xml:space="preserve" xmlns:serif="http://www.serif.com/" style="fill-rule:evenodd;clip-rule:evenodd;stroke-linejoin:round;stroke-miterlimit:2;">
    <g transform="matrix(3.13078,0,0,3.13078,-31.2953,-32.0409)">
        <g>
            <path d="M10,29.801L12.207,19.016L17.312,19.016C19.519,19.153 20.621,20.215 20.621,22.079C20.621,25.274 18,27.129 15.656,27.005L13.172,27.005L12.617,29.802L9.996,29.802M13.723,25.009L14.414,21.017L16.207,21.017C17.176,21.017 17.863,21.415 17.863,22.216C17.722,24.478 16.621,24.876 15.379,25.009" style="fill:rgb(77,77,77);"/>
            <path d="M19.797,27L22.004,16.219L24.625,16.219L24.074,19.012L26.558,19.012C28.765,19.149 29.593,20.211 29.316,21.543L28.351,27L25.589,27L26.558,22.074C26.695,21.41 26.695,21.008 25.726,21.008L23.66,21.008L22.418,26.996L19.797,26.996" style="fill:rgb(77,77,77);fill-rule:nonzero;"/>
            <path d="M28.13,29.801L30.341,19.016L35.446,19.016C37.653,19.153 38.755,20.215 38.755,22.079C38.755,25.274 36.134,27.129 33.786,27.005L31.302,27.005L30.751,29.802M31.856,25.009L32.547,21.017L34.34,21.017C35.305,21.017 35.992,21.415 35.992,22.216C35.855,24.478 34.754,24.876 33.508,25.009" style="fill:rgb(77,77,77);"/>
        </g>
    </g>
</svg>
