<?xml version="1.0" encoding="UTF-8" standalone="no"?>
<!DOCTYPE svg PUBLIC "-//W3C//DTD SVG 1.1//EN" "http://www.w3.org/Graphics/SVG/1.1/DTD/svg11.dtd">
<svg width="100%" height="100%" viewBox="0 0 91 90" version="1.1" xmlns="http://www.w3.org/2000/svg" xmlns:xlink="http://www.w3.org/1999/xlink" xml:space="preserve" xmlns:serif="http://www.serif.com/" style="fill-rule:evenodd;clip-rule:evenodd;stroke-linejoin:round;stroke-miterlimit:2;">
    <g id="Webpack" transform="matrix(0.638298,0,0,0.638298,-211.776,-1934.04)">
        <g transform="matrix(0.161014,0,0,0.161014,272.213,2975.9)">
            <path d="M808,336L1195,554.9L1195,992.8L808,1211.7L421,992.8L421,554.9L808,336Z" style="fill:white;fill-rule:nonzero;"/>
        </g>
        <g transform="matrix(0.161014,0,0,0.161014,272.213,2975.9)">
            <path d="M1125.9,977.7L820.8,1150.3L820.8,1015.9L1010.9,911.3L1125.9,977.7ZM1146.8,958.8L1146.8,597.9L1035.2,662.4L1035.2,894.4L1146.8,958.8ZM488.9,977.7L794,1150.3L794,1015.9L603.8,911.3L488.9,977.7ZM468,958.8L468,597.9L579.6,662.4L579.6,894.4L468,958.8ZM481.1,574.5L794,397.5L794,527.4L593.5,637.7L591.9,638.6L481.1,574.5ZM1133.7,574.5L820.8,397.5L820.8,527.4L1021.3,637.6L1022.9,638.5L1133.7,574.5Z" style="fill:rgb(142,214,251);fill-rule:nonzero;"/>
        </g>
        <g transform="matrix(0.161014,0,0,0.161014,272.213,2975.9)">
            <path d="M794,985.3L606.4,882.1L606.4,677.8L794,786.1L794,985.3ZM820.8,985.3L1008.4,882.2L1008.4,677.8L820.8,786.1L820.8,985.3ZM619.1,654.2L807.4,550.7L995.7,654.2L807.4,762.9L619.1,654.2Z" style="fill:rgb(28,120,192);fill-rule:nonzero;"/>
        </g>
    </g>
</svg>
